<svg xmlns="http://www.w3.org/2000/svg" viewBox="0 0 640 420" role="img" aria-label="AI employee course cover">
  <defs>
    <linearGradient id="g1" x1="0" x2="1" y1="0" y2="1">
      <stop offset="0" stop-color="#ffffff"/>
      <stop offset="0.55" stop-color="#e8ffe9"/>
      <stop offset="1" stop-color="#0a844a"/>
    </linearGradient>
    <filter id="s1" x="-20%" y="-20%" width="140%" height="140%">
      <feDropShadow dx="0" dy="18" stdDeviation="22" flood-color="#030609" flood-opacity=".16"/>
    </filter>
  </defs>
  <rect width="640" height="420" rx="34" fill="url(#g1)"/>
  <circle cx="510" cy="80" r="88" fill="#ffffff" opacity=".46"/>
  <circle cx="112" cy="342" r="118" fill="#ffffff" opacity=".38"/>
  <g filter="url(#s1)">
    <rect x="82" y="76" width="306" height="238" rx="28" fill="#ffffff" opacity=".94"/>
    <rect x="118" y="114" width="126" height="16" rx="8" fill="#0a844a"/>
    <rect x="118" y="154" width="222" height="12" rx="6" fill="#d8deda"/>
    <rect x="118" y="184" width="184" height="12" rx="6" fill="#d8deda"/>
    <rect x="118" y="236" width="92" height="44" rx="15" fill="#e7f2ec"/>
    <rect x="226" y="236" width="92" height="44" rx="15" fill="#e7f2ec"/>
  </g>
  <g filter="url(#s1)">
    <circle cx="442" cy="218" r="88" fill="#04261c"/>
    <circle cx="442" cy="218" r="62" fill="#0a844a"/>
    <path d="M405 222c24-40 55-40 78 0" fill="none" stroke="#ffffff" stroke-width="12" stroke-linecap="round"/>
    <circle cx="418" cy="197" r="10" fill="#ffffff"/>
    <circle cx="466" cy="197" r="10" fill="#ffffff"/>
  </g>
</svg>
