<svg xmlns="http://www.w3.org/2000/svg" viewBox="0 0 640 360" role="img" aria-label="AI business mobile course cover">
  <defs>
    <linearGradient id="bg" x1="0" x2="1" y1="1" y2="0">
      <stop offset="0" stop-color="#030609"/>
      <stop offset=".6" stop-color="#063927"/>
      <stop offset="1" stop-color="#0a844a"/>
    </linearGradient>
    <filter id="shadow" x="-20%" y="-20%" width="140%" height="140%">
      <feDropShadow dx="0" dy="18" stdDeviation="22" flood-color="#000000" flood-opacity=".26"/>
    </filter>
  </defs>
  <rect width="640" height="360" rx="32" fill="url(#bg)"/>
  <path d="M448 40c82 38 112 92 92 164s-78 108-172 88-143-67-127-139 125-151 207-113z" fill="#edffef" opacity=".1"/>
  <g filter="url(#shadow)">
    <rect x="70" y="66" width="500" height="228" rx="28" fill="#f6fff7" opacity=".95"/>
    <path d="M116 236h410" stroke="#c8d7cd" stroke-width="4" stroke-linecap="round"/>
    <rect x="138" y="166" width="40" height="70" rx="12" fill="#0a844a"/>
    <rect x="214" y="132" width="40" height="104" rx="12" fill="#78c889"/>
    <rect x="290" y="96" width="40" height="140" rx="12" fill="#0a844a"/>
    <rect x="366" y="150" width="40" height="86" rx="12" fill="#78c889"/>
    <rect x="442" y="112" width="40" height="124" rx="12" fill="#0a844a"/>
    <circle cx="506" cy="108" r="31" fill="#e8ffe9"/>
    <path d="M491 108h30M506 93v30" stroke="#0a844a" stroke-width="7" stroke-linecap="round"/>
  </g>
</svg>
