<svg xmlns="http://www.w3.org/2000/svg" viewBox="0 0 640 360" role="img" aria-label="AI employee mobile course cover">
  <defs>
    <linearGradient id="bg" x1="0" x2="1" y1="0" y2="1">
      <stop offset="0" stop-color="#030609"/>
      <stop offset=".58" stop-color="#063927"/>
      <stop offset="1" stop-color="#0a844a"/>
    </linearGradient>
    <filter id="shadow" x="-20%" y="-20%" width="140%" height="140%">
      <feDropShadow dx="0" dy="18" stdDeviation="22" flood-color="#000000" flood-opacity=".26"/>
    </filter>
  </defs>
  <rect width="640" height="360" rx="32" fill="url(#bg)"/>
  <circle cx="550" cy="74" r="118" fill="#a0d9a5" opacity=".16"/>
  <circle cx="86" cy="308" r="138" fill="#edffef" opacity=".09"/>
  <g filter="url(#shadow)">
    <rect x="62" y="76" width="296" height="206" rx="26" fill="#f6fff7" opacity=".94"/>
    <rect x="98" y="112" width="126" height="14" rx="7" fill="#0a844a"/>
    <rect x="98" y="150" width="214" height="12" rx="6" fill="#a9b8ad" opacity=".72"/>
    <rect x="98" y="180" width="164" height="12" rx="6" fill="#a9b8ad" opacity=".72"/>
    <rect x="98" y="224" width="86" height="38" rx="14" fill="#e8ffe9"/>
    <rect x="200" y="224" width="86" height="38" rx="14" fill="#e8ffe9"/>
  </g>
  <g filter="url(#shadow)">
    <circle cx="458" cy="186" r="82" fill="#052118"/>
    <circle cx="458" cy="186" r="58" fill="#0a844a"/>
    <path d="M424 190c22-36 48-36 68 0" fill="none" stroke="#ffffff" stroke-width="11" stroke-linecap="round"/>
    <circle cx="436" cy="168" r="9" fill="#ffffff"/>
    <circle cx="480" cy="168" r="9" fill="#ffffff"/>
  </g>
</svg>
