<svg xmlns="http://www.w3.org/2000/svg" viewBox="0 0 640 360" role="img" aria-label="AI marketing mobile course cover">
  <defs>
    <linearGradient id="bg" x1="0" x2="1" y1="0" y2="1">
      <stop offset="0" stop-color="#030609"/>
      <stop offset=".58" stop-color="#063927"/>
      <stop offset="1" stop-color="#0a844a"/>
    </linearGradient>
    <filter id="shadow" x="-20%" y="-20%" width="140%" height="140%">
      <feDropShadow dx="0" dy="18" stdDeviation="22" flood-color="#000000" flood-opacity=".26"/>
    </filter>
  </defs>
  <rect width="640" height="360" rx="32" fill="url(#bg)"/>
  <circle cx="104" cy="74" r="96" fill="#edffef" opacity=".08"/>
  <circle cx="542" cy="286" r="120" fill="#a0d9a5" opacity=".13"/>
  <g filter="url(#shadow)">
    <rect x="76" y="78" width="202" height="216" rx="26" fill="#f6fff7"/>
    <rect x="112" y="114" width="94" height="13" rx="7" fill="#0a844a"/>
    <rect x="112" y="150" width="126" height="78" rx="18" fill="#e8ffe9"/>
    <circle cx="156" cy="188" r="22" fill="#0a844a"/>
    <rect x="112" y="250" width="132" height="12" rx="6" fill="#b7c6bb"/>
  </g>
  <g filter="url(#shadow)">
    <rect x="338" y="70" width="220" height="220" rx="30" fill="#052118"/>
    <path d="M388 216c44-88 86-88 128 0" fill="none" stroke="#4be3a6" stroke-width="13" stroke-linecap="round"/>
    <circle cx="412" cy="154" r="22" fill="#ffffff"/>
    <circle cx="476" cy="154" r="22" fill="#ffffff"/>
    <path d="M388 244h118" stroke="#ffffff" stroke-width="11" stroke-linecap="round"/>
  </g>
</svg>
