<svg xmlns="http://www.w3.org/2000/svg" viewBox="0 0 640 360" role="img" aria-label="AI for everyone mobile course cover">
  <defs>
    <linearGradient id="bg" x1="0" x2="1" y1="1" y2="0">
      <stop offset="0" stop-color="#030609"/>
      <stop offset=".58" stop-color="#063927"/>
      <stop offset="1" stop-color="#0a844a"/>
    </linearGradient>
    <filter id="shadow" x="-20%" y="-20%" width="140%" height="140%">
      <feDropShadow dx="0" dy="18" stdDeviation="22" flood-color="#000000" flood-opacity=".26"/>
    </filter>
  </defs>
  <rect width="640" height="360" rx="32" fill="url(#bg)"/>
  <circle cx="520" cy="84" r="110" fill="#edffef" opacity=".1"/>
  <path d="M84 286c70-90 150-114 240-72s147 37 216-18" fill="none" stroke="#a0d9a5" stroke-width="18" stroke-linecap="round" opacity=".2"/>
  <g filter="url(#shadow)">
    <rect x="104" y="92" width="310" height="178" rx="26" fill="#f6fff7"/>
    <rect x="140" y="128" width="174" height="13" rx="7" fill="#0a844a"/>
    <rect x="140" y="164" width="218" height="12" rx="6" fill="#b7c6bb"/>
    <rect x="140" y="194" width="154" height="12" rx="6" fill="#b7c6bb"/>
    <rect x="140" y="230" width="92" height="30" rx="15" fill="#e8ffe9"/>
  </g>
  <g filter="url(#shadow)">
    <rect x="396" y="118" width="110" height="170" rx="28" fill="#052118"/>
    <rect x="418" y="148" width="66" height="86" rx="18" fill="#0a844a"/>
    <circle cx="451" cy="260" r="10" fill="#ffffff"/>
  </g>
</svg>
