<?xml version="1.0" encoding="UTF-8"?>
<svg xmlns="http://www.w3.org/2000/svg" viewBox="0 42 250 66">
  <defs>
    <style>
      .cls-1 {
        fill: #3c6555;
      }
    </style>
  </defs>
  <g id="_Слой_1" data-name="Слой 1">
    <g id="ABFtyo.tif">
      <g>
        <polygon points="50.42 102.94 10.71 68 10.66 96.18 1.36 103.07 1.36 47.03 24.97 66.21 50.57 87.66 50.42 102.94"/>
        <path d="M90.76,86.87l5.31,3.98c-4.53,5.09-10.71,7.16-17.27,6.41-6.86-.78-12.6-5.42-14.68-11.35-2.41-6.88-.89-14.29,4.49-19.01,6.31-5.54,15.74-6.08,22.7-1.48,5.61,3.71,7.71,10.45,6.66,16.76h-27.82c.85,4.66,4.35,7.78,8.2,8.73,4.58,1.13,8.99.02,12.42-4.03ZM91.47,76.6c-.9-5.18-5.03-8-9.77-8.13-5.35-.39-10.36,2.81-11.52,8.16l21.29-.03Z"/>
        <path d="M241.97,96.95v-4.57c-6.07,7.08-18.17,6.34-24.41-.16-7.23-7.54-6.38-20.35,2.16-26.62,6.85-5.02,16.6-4.61,23.16.58,3.66,2.89,5.63,7.45,5.66,12.08l.1,18.56-6.68.13ZM242.09,79.74c0-6.23-5.07-11.27-11.32-11.27s-11.32,5.05-11.32,11.27,5.07,11.27,11.32,11.27,11.32-5.05,11.32-11.27Z"/>
        <path d="M179.81,79.78c0,9.94-8.09,18-18.08,18s-18.08-8.06-18.08-18,8.09-18,18.08-18,18.08,8.06,18.08,18ZM173.24,79.79c0-6.34-5.16-11.47-11.52-11.47s-11.52,5.14-11.52,11.47,5.16,11.47,11.52,11.47,11.52-5.14,11.52-11.47Z"/>
        <polygon class="cls-1" points="138.6 96.73 130.31 96.93 121.04 84.71 111.97 96.81 103.8 96.76 116.91 79.76 104.02 63.14 112.44 63.03 121.11 74.67 129.79 63.13 138.17 63.15 125.33 79.74 138.6 96.73"/>
        <path d="M195.79,96.75l-6.9.08v-33.73s6.88-.08,6.88-.08l.1,3.83c1.78-2,3.94-3.96,6.78-4.03l6.24-.15-.08,6.56c-3.71-.8-7.21-.75-10.02,1.67-1.91,1.64-2.92,4.53-2.93,7.08l-.07,18.77Z"/>
        <polygon class="cls-1" points="50.5 72.43 34.24 58.93 50.54 46.93 50.5 72.43"/>
      </g>
    </g>
  </g>
  <g id="_Слой_3" data-name="Слой 3">
    <polygon points="116.91 79.76 125.33 79.74 138.17 63.15 129.79 63.13 121.11 74.67 112.44 63.03 104.02 63.14 116.91 79.76"/>
    <polygon points="103.8 96.76 116.91 79.76 125.33 79.74 111.97 96.81 103.8 96.76"/>
  </g>
</svg>