<?xml version="1.0" encoding="UTF-8"?>
<svg xmlns="http://www.w3.org/2000/svg" viewBox="0 0 250 150">
  <defs>
    <style>
      .cls-1 {
        fill: #606060;
      }

      .cls-2 {
        fill: #3c6555;
      }

      .cls-3 {
        fill: #fff;
      }
    </style>
  </defs>

  <g id="_Слой_1" data-name="Слой 1">
    <g>
      <polygon class="cls-3" points="50.57 87.66 50.42 102.94 10.71 68 10.66 96.18 1.36 103.07 1.36 47.03 24.97 66.21 50.57 87.66"/>
      <path class="cls-3" d="M91.3,65.41c5.61,3.7,7.72,10.44,6.66,16.76h-27.82c.84,4.65,4.35,7.78,8.2,8.73,4.58,1.12,8.98.02,12.42-4.03l5.3,3.97c-4.53,5.1-10.7,7.16-17.27,6.41-6.85-.78-12.6-5.42-14.67-11.35-2.42-6.88-.89-14.29,4.49-19.01,6.31-5.54,15.74-6.08,22.69-1.48ZM70.18,76.63l21.29-.03c-.9-5.18-5.03-8-9.78-8.13-5.35-.38-10.36,2.81-11.51,8.16Z"/>
      <path class="cls-3" d="M248.54,78.26l.1,18.56-6.67.13v-4.56c-6.07,7.08-18.17,6.33-24.41-.17-7.23-7.53-6.39-20.35,2.16-26.62,6.85-5.02,16.61-4.6,23.16.58,3.66,2.89,5.64,7.45,5.66,12.08ZM242.09,79.74c0-6.22-5.06-11.27-11.32-11.27s-11.32,5.05-11.32,11.27,5.07,11.28,11.32,11.28,11.32-5.05,11.32-11.28Z"/>
      <path class="cls-3" d="M161.74,61.78c9.98,0,18.07,8.06,18.07,18s-8.09,18-18.07,18-18.08-8.06-18.08-18,8.09-18,18.08-18ZM173.24,79.79c0-6.33-5.15-11.47-11.52-11.47s-11.51,5.14-11.51,11.47,5.15,11.47,11.51,11.47,11.52-5.13,11.52-11.47Z"/>
      <polygon class="cls-2" points="138.6 96.73 130.31 96.93 121.04 84.71 111.97 96.81 103.8 96.76 116.91 79.76 104.02 63.14 112.44 63.03 121.11 74.67 129.79 63.13 138.17 63.15 125.33 79.74 138.6 96.73"/>
      <path class="cls-3" d="M208.89,62.67l-.08,6.56c-3.71-.8-7.21-.75-10.02,1.67-1.91,1.64-2.92,4.53-2.93,7.07l-.07,18.78-6.9.08v-33.73s6.88-.08,6.88-.08l.1,3.83c1.78-2.01,3.93-3.96,6.78-4.03l6.24-.15Z"/>
      <polygon class="cls-2" points="50.5 72.43 34.24 58.93 50.54 46.93 50.5 72.43"/>
    </g>
  </g>
  <g id="_Слой_3" data-name="Слой 3">
    <g>
      <polygon class="cls-3" points="138.17 63.15 125.33 79.74 116.91 79.76 104.02 63.14 112.44 63.03 121.11 74.67 129.79 63.13 138.17 63.15"/>
      <polygon class="cls-3" points="125.33 79.74 111.97 96.81 103.8 96.76 116.91 79.76 125.33 79.74"/>
    </g>
  </g>
</svg>
